<?xml version="1.0" encoding="UTF-8"?>
<svg width="252px" height="163px" viewBox="0 0 252 163" version="1.1" xmlns="http://www.w3.org/2000/svg" xmlns:xlink="http://www.w3.org/1999/xlink">
    <!-- Generator: Sketch 50.2 (55047) - http://www.bohemiancoding.com/sketch -->
    <title>dotcom_black</title>
    <desc>Created with Sketch.</desc>
    <defs></defs>
    <g id="Pres" stroke="none" stroke-width="1" fill="none" fill-rule="evenodd">
        <g id="Desktop-HD" transform="translate(-589.000000, -11691.000000)" fill="#000000">
            <g id="dotcom_black" transform="translate(589.500000, 11688.929688)">
                <path d="M0.38547625,163.904297 L0.38547625,2.09570312 L50.812127,2.09570312 C69.0618633,2.09570312 82.7674314,5.49438846 91.9292423,12.2918611 C101.091053,19.0893337 105.67189,29.2115053 105.67189,42.6586794 C105.67189,52.4115749 103.104405,60.2802703 97.9693576,66.2650016 C92.8343104,72.2497329 85.0579705,76.4242051 74.6401049,78.7885435 C86.3140253,81.3006529 94.9769786,85.7891341 100.629225,92.2541216 C106.281471,98.7191092 109.107552,107.382063 109.107552,118.243242 C109.107552,133.389784 104.194235,144.786462 94.367454,152.433619 C84.5406729,160.080776 70.0223758,163.904297 50.812127,163.904297 L0.38547625,163.904297 Z M121.496497,163.904297 L121.496497,79.365879 L109.173991,79.365879 L122.370232,2.09570312 L195.614524,2.09570312 L195.614524,163.904297 L121.496497,163.904297 Z" id="Combined-Shape-Copy"></path>
                <text id=".COM" transform="translate(230.500000, 83.385476) rotate(-90.000000) translate(-230.500000, -83.385476) " font-family="Graphik-Super, Graphik" font-size="60" font-weight="700" letter-spacing="-1.56521773">
                    <tspan x="147.5" y="103.385476">.COM</tspan>
                </text>
            </g>
        </g>
    </g>
</svg>